<svg width="48" height="48" viewBox="0 0 48 48" fill="none" xmlns="http://www.w3.org/2000/svg">
<rect x="1.37305" y="24" width="32" height="32" transform="rotate(-45 1.37305 24)" fill="#DEF0FF"/>
<path d="M21 34C21.5523 34 22 33.5523 22 33C22 32.4477 21.5523 32 21 32C20.4477 32 20 32.4477 20 33C20 33.5523 20.4477 34 21 34Z" stroke="#1C629E" strokeWidth="2" strokeLinecap="round" strokeLinejoin="round"/>
<path d="M32 34C32.5523 34 33 33.5523 33 33C33 32.4477 32.5523 32 32 32C31.4477 32 31 32.4477 31 33C31 33.5523 31.4477 34 32 34Z" stroke="#1C629E" strokeWidth="2" strokeLinecap="round" strokeLinejoin="round"/>
<path d="M13 13H17L19.68 26.39C19.7714 26.8504 20.0219 27.264 20.3875 27.5583C20.7532 27.8526 21.2107 28.009 21.68 28H31.4C31.8693 28.009 32.3268 27.8526 32.6925 27.5583C33.0581 27.264 33.3086 26.8504 33.4 26.39L35 18H18" stroke="#1C629E" strokeWidth="1.5" strokeLinecap="round" strokeLinejoin="round"/>
</svg>
