<svg width="48" height="48" viewBox="0 0 48 48" fill="none" xmlns="http://www.w3.org/2000/svg">
<circle cx="24" cy="24" r="24" fill="url(#paint0_linear_1451_10522)"/>
<path d="M23.9968 19.9983C21.7933 19.9983 19.9951 21.7965 19.9951 24C19.9951 26.2035 21.7933 28.0017 23.9968 28.0017C26.2002 28.0017 27.9984 26.2035 27.9984 24C27.9984 21.7965 26.2002 19.9983 23.9968 19.9983ZM35.9987 24C35.9987 22.3429 36.0137 20.7008 35.9206 19.0467C35.8275 17.1254 35.3893 15.4202 33.9843 14.0153C32.5764 12.6073 30.8743 12.172 28.953 12.0789C27.2959 11.9859 25.6539 12.0009 23.9998 12.0009C22.3427 12.0009 20.7006 11.9859 19.0465 12.0789C17.1253 12.172 15.4201 12.6103 14.0152 14.0153C12.6073 15.4232 12.172 17.1254 12.0789 19.0467C11.9859 20.7038 12.0009 22.3459 12.0009 24C12.0009 25.6541 11.9859 27.2992 12.0789 28.9533C12.172 30.8746 12.6103 32.5798 14.0152 33.9847C15.4231 35.3927 17.1253 35.828 19.0465 35.9211C20.7036 36.0141 22.3457 35.9991 23.9998 35.9991C25.6569 35.9991 27.2989 36.0141 28.953 35.9211C30.8743 35.828 32.5794 35.3897 33.9843 33.9847C35.3923 32.5768 35.8275 30.8746 35.9206 28.9533C36.0167 27.2992 35.9987 25.6571 35.9987 24ZM23.9968 30.1572C20.5895 30.1572 17.8397 27.4073 17.8397 24C17.8397 20.5927 20.5895 17.8428 23.9968 17.8428C27.404 17.8428 30.1538 20.5927 30.1538 24C30.1538 27.4073 27.404 30.1572 23.9968 30.1572ZM30.406 19.0286C29.6105 19.0286 28.968 18.3862 28.968 17.5907C28.968 16.7951 29.6105 16.1527 30.406 16.1527C31.2015 16.1527 31.8439 16.7951 31.8439 17.5907C31.8442 17.7796 31.8071 17.9667 31.735 18.1412C31.6628 18.3158 31.5569 18.4744 31.4233 18.608C31.2897 18.7416 31.1311 18.8475 30.9565 18.9197C30.782 18.9918 30.5949 19.0289 30.406 19.0286Z" fill="white"/>
<defs>
<linearGradient id="paint0_linear_1451_10522" x1="10.2" y1="42.6" x2="42" y2="9.6" gradientUnits="userSpaceOnUse">
<stop stop-color="#E8B27D"/>
<stop offset="0.502762" stop-color="#D97387"/>
<stop offset="1" stop-color="#B85DA5"/>
</linearGradient>
</defs>
</svg>
