<svg width="29" height="40" viewBox="0 0 29 40" fill="none" xmlns="http://www.w3.org/2000/svg">
<g clip-path="url(#clip0_1791_9395)">
<path fill-rule="evenodd" clip-rule="evenodd" d="M14.5011 17.4177L8.99621 22.9015L14.5011 28.3853L20.006 22.9015L14.5011 17.4177ZM3.16748 22.9015L14.5011 34.1917L25.8348 22.9015L14.5011 11.6113L3.16748 22.9015Z" fill="#969696"/>
<path fill-rule="evenodd" clip-rule="evenodd" d="M14.5007 5.80573L6.08142 14.1927L14.5007 22.5798L22.92 14.1927L14.5007 5.80573ZM0.252686 14.1927L14.5007 28.3862L28.7487 14.1927L14.5007 -0.000675574L0.252686 14.1927Z" fill="#525252"/>
<path fill-rule="evenodd" clip-rule="evenodd" d="M14.4977 28.3826L11.5834 31.2858L14.4977 34.189L17.4121 31.2858L14.4977 28.3826ZM5.75464 31.2858L14.4977 39.9954L23.2408 31.2858L14.4977 22.5762L5.75464 31.2858Z" fill="#DADADA"/>
<path d="M3.16748 22.9015L6.08185 19.9983L17.4155 31.2885L14.5011 34.1917L3.16748 22.9015Z" fill="#969696"/>
</g>
<defs>
<clipPath id="clip0_1791_9395">
<rect width="29" height="40" fill="white"/>
</clipPath>
</defs>
</svg>
