<svg width="29" height="40" viewBox="0 0 29 40" fill="none" xmlns="http://www.w3.org/2000/svg">
<g clip-path="url(#clip0_1775_3678)">
<path fill-rule="evenodd" clip-rule="evenodd" d="M14.5011 17.4177L8.99621 22.9015L14.5011 28.3853L20.006 22.9015L14.5011 17.4177ZM3.16748 22.9015L14.5011 34.1917L25.8348 22.9015L14.5011 11.6113L3.16748 22.9015Z" fill="#66B1F1"/>
<path fill-rule="evenodd" clip-rule="evenodd" d="M14.5007 5.80569L6.08142 14.1927L14.5007 22.5797L22.92 14.1927L14.5007 5.80569ZM0.252686 14.1927L14.5007 28.3861L28.7487 14.1927L14.5007 -0.000706092L0.252686 14.1927Z" fill="#1C629E"/>
<path fill-rule="evenodd" clip-rule="evenodd" d="M14.4977 28.3825L11.5834 31.2857L14.4977 34.1889L17.4121 31.2857L14.4977 28.3825ZM5.75464 31.2857L14.4977 39.9953L23.2408 31.2857L14.4977 22.5761L5.75464 31.2857Z" fill="#FFC540"/>
<path d="M3.16748 22.9015L6.08185 19.9983L17.4155 31.2885L14.5011 34.1917L3.16748 22.9015Z" fill="#66B1F1"/>
</g>
<defs>
<clipPath id="clip0_1775_3678">
<rect width="29" height="40" fill="white"/>
</clipPath>
</defs>
</svg>
