<svg width="48" height="48" viewBox="0 0 48 48" fill="none" xmlns="http://www.w3.org/2000/svg">
<circle cx="24" cy="24" r="24" fill="#92A8C9"/>
<path d="M35.7675 30.1384C35.7675 30.0387 35.6678 30.0387 35.6678 29.9391C35.2693 29.1421 34.3727 28.1458 33.1771 27.0499C32.5794 26.5518 32.2805 26.1533 32.0812 25.954C31.7824 25.5555 31.7824 25.2566 31.882 24.8581C31.9816 24.5592 32.3801 24.0611 33.0775 23.1644C33.476 22.6663 33.6753 22.3674 33.9742 22.0685C35.4686 20.076 36.166 18.7808 35.9667 18.1831L35.8671 18.0834C35.7675 17.9838 35.6678 17.8842 35.4686 17.8842C35.2693 17.7846 34.9704 17.7846 34.6716 17.8842H30.8857C30.7861 17.8842 30.7861 17.8842 30.5868 17.8842C30.4872 17.8842 30.3876 17.8842 30.3876 17.8842H30.288H30.1883L30.0887 17.9838C29.9891 18.0834 29.9891 18.0834 29.9891 18.1831C29.5905 19.279 29.0924 20.1756 28.5943 21.1719C28.2954 21.67 27.9965 22.1682 27.6976 22.5667C27.3987 22.9652 27.1995 23.2641 27.0002 23.4633C26.801 23.6626 26.6017 23.7622 26.5021 23.9615C26.4025 24.0611 26.2032 24.1607 26.2032 24.0611C26.1036 24.0611 26.004 24.0611 26.004 23.9615C25.9043 23.8618 25.8047 23.7622 25.7051 23.6626C25.6055 23.5629 25.6054 23.3637 25.5058 23.1644C25.5058 22.9652 25.5058 22.7659 25.5058 22.6663C25.5058 22.5667 25.5058 22.2678 25.5058 22.0685C25.5058 21.7697 25.5058 21.5704 25.5058 21.4708C25.5058 21.1719 25.5058 20.7734 25.5058 20.3749C25.5058 19.9764 25.5058 19.6775 25.5058 19.4782C25.5058 19.279 25.5058 18.9801 25.5058 18.7808C25.5058 18.4819 25.5058 18.2827 25.5058 18.1831C25.5058 18.0834 25.4062 17.8842 25.4062 17.7845C25.3066 17.6849 25.2069 17.5853 25.1073 17.4857C25.0077 17.386 24.8084 17.386 24.7088 17.2864C24.2107 17.1868 23.6129 17.0872 22.9155 17.0872C21.3215 17.0872 20.2256 17.1868 19.8271 17.386C19.6278 17.4857 19.4286 17.5853 19.3289 17.7845C19.1297 17.9838 19.1297 18.0834 19.2293 18.0834C19.7274 18.1831 20.1259 18.3823 20.3252 18.6812L20.4248 18.8805C20.5245 18.9801 20.5244 19.1793 20.6241 19.4782C20.7237 19.7771 20.7237 20.076 20.7237 20.4745C20.7237 21.0723 20.7237 21.67 20.7237 22.0685C20.7237 22.5667 20.6241 22.8655 20.6241 23.1644C20.6241 23.4633 20.5245 23.6626 20.4248 23.7622C20.3252 23.9615 20.3252 24.0611 20.2256 24.0611C20.2256 24.0611 20.2256 24.1607 20.1259 24.1607C20.0263 24.1607 19.9267 24.2603 19.7274 24.2603C19.6278 24.2603 19.4286 24.1607 19.3289 24.0611C19.1297 23.9615 18.9304 23.7622 18.8308 23.5629C18.6315 23.3637 18.4323 23.0648 18.233 22.6663C18.0338 22.2678 17.7349 21.8693 17.5356 21.2715L17.3364 20.873C17.2367 20.6738 17.0375 20.2752 16.8382 19.7771C16.639 19.279 16.4397 18.8805 16.2405 18.3823C16.1408 18.1831 16.0412 18.0834 15.9416 17.9838H15.842C15.842 17.9838 15.7423 17.8842 15.6427 17.8842C15.5431 17.8842 15.4435 17.7845 15.3438 17.7845H11.7572C11.3587 17.7845 11.1595 17.8842 11.0598 17.9838L10.9602 18.0834C10.9602 18.0834 10.9602 18.1831 10.9602 18.2827C10.9602 18.3823 10.9602 18.4819 11.0598 18.6812C11.558 19.8767 12.1557 21.0723 12.7535 22.2678C13.3513 23.3637 13.949 24.36 14.3475 25.0574C14.8457 25.7548 15.2442 26.4521 15.7423 27.0499C16.2405 27.6477 16.5393 28.0462 16.639 28.2454C16.8382 28.4447 16.9378 28.5443 17.0375 28.6439L17.3364 28.9428C17.5356 29.1421 17.8345 29.441 18.233 29.7399C18.6315 30.0387 19.1297 30.3376 19.6278 30.6365C20.1259 30.9354 20.7237 31.1346 21.3215 31.3339C22.0189 31.5332 22.6166 31.6328 23.2144 31.5331H24.7088C25.0077 31.5331 25.207 31.4335 25.4062 31.2343L25.5058 31.1346C25.5058 31.035 25.6054 31.035 25.6054 30.9354C25.6054 30.8357 25.6054 30.7361 25.6054 30.5369C25.6054 30.1384 25.6055 29.8395 25.7051 29.5406C25.8047 29.2417 25.8047 29.0425 25.9043 28.8432C26.004 28.644 26.1036 28.5443 26.2032 28.4447C26.3028 28.3451 26.4025 28.2454 26.4025 28.2454H26.5021C26.7013 28.1458 27.0002 28.2454 27.1995 28.4447C27.4984 28.6439 27.7972 28.9428 27.9965 29.2417C28.1958 29.5406 28.4947 29.8395 28.8932 30.238C29.2917 30.6365 29.5906 30.9354 29.7898 31.035L30.0887 31.2343C30.2879 31.3339 30.4872 31.4335 30.7861 31.5331C31.085 31.6328 31.2842 31.6328 31.4835 31.6328L34.8708 31.5331C35.1697 31.5331 35.4686 31.4335 35.6678 31.3339C35.8671 31.2343 35.9667 31.1346 35.9667 30.9354C35.9667 30.8357 35.9667 30.6365 35.9667 30.5369C35.7674 30.3376 35.7675 30.238 35.7675 30.1384Z" fill="white"/>
</svg>
