<svg width="48" height="48" viewBox="0 0 48 48" fill="none" xmlns="http://www.w3.org/2000/svg">
<circle cx="24" cy="24" r="24" fill="#E45E5E"/>
<path d="M34.4557 22.6958C34.4557 22.2303 34.3781 21.6873 34.3781 21.0667C34.3006 20.4461 34.223 19.8255 34.1454 19.2825C33.9903 18.6619 33.7575 18.1964 33.2921 17.8085C32.9042 17.4207 32.3612 17.1879 31.8181 17.1103C30.0339 16.8776 27.3963 16.8 23.8278 16.8C20.2594 16.8 17.5442 16.8776 15.8375 17.1103C15.2945 17.1879 14.7515 17.4207 14.3636 17.8085C13.9757 18.1964 13.6654 18.6619 13.5102 19.2825C13.3551 19.8255 13.2775 20.3685 13.2775 21.0667C13.2 21.6873 13.2 22.2303 13.2 22.6958C13.2 23.1613 13.2 23.7043 13.2 24.48C13.2 25.2558 13.2 25.8764 13.2 26.2643C13.2 26.7297 13.2775 27.2728 13.2775 27.8934C13.3551 28.514 13.4327 29.1346 13.5102 29.6776C13.6654 30.2982 13.8981 30.7637 14.3636 31.1516C14.7515 31.5394 15.2945 31.7722 15.8375 31.8497C17.6218 32.0825 20.2594 32.1601 23.8278 32.1601C27.3963 32.1601 30.1115 32.0825 31.8181 31.8497C32.3612 31.7722 32.9042 31.5394 33.2921 31.1516C33.6799 30.7637 33.9903 30.2982 34.1454 29.6776C34.3006 29.1346 34.3781 28.5916 34.3781 27.8934C34.4557 27.2728 34.4557 26.7297 34.4557 26.2643C34.4557 25.7988 34.4557 25.2558 34.4557 24.48C34.4557 23.7043 34.4557 23.0837 34.4557 22.6958ZM27.9393 25.1007L21.8109 28.9019C21.7333 28.9794 21.5781 29.057 21.423 29.057C21.2678 29.057 21.1903 29.057 21.0351 28.9794C20.8024 28.8243 20.6472 28.5916 20.6472 28.2813V20.6013C20.6472 20.291 20.8024 20.0582 21.0351 19.9031C21.2678 19.7479 21.5781 19.7479 21.8109 19.9031L27.9393 23.7043C28.1721 23.8594 28.3272 24.0922 28.3272 24.3249C28.3272 24.5576 28.1721 24.9455 27.9393 25.1007Z" fill="white"/>
</svg>
